<svg width="14" height="10" viewBox="0 0 14 10" fill="none" xmlns="http://www.w3.org/2000/svg">
<path fill-rule="evenodd" clip-rule="evenodd" d="M12.5594 0.0360272C12.4995 0.0550041 12.3956 0.0981778 12.3283 0.131999C12.24 0.176369 11.2102 1.1884 8.63076 3.76548L5.0556 7.33748L3.43795 5.72415C1.97042 4.26053 1.80362 4.10274 1.64066 4.02365C1.54186 3.97569 1.38893 3.92645 1.30082 3.91422C1.21012 3.90163 1.06981 3.90302 0.977477 3.91745C0.887758 3.93148 0.75318 3.97104 0.678414 4.00535C0.603649 4.03966 0.480353 4.12389 0.404446 4.19254C0.328511 4.26116 0.228434 4.38856 0.182024 4.47564C0.135615 4.56272 0.0824366 4.71641 0.0638675 4.8172C0.0369791 4.96311 0.0369791 5.03772 0.0638675 5.18363C0.0824366 5.28442 0.133848 5.43484 0.178137 5.51793C0.241973 5.63772 0.690431 6.09971 2.34447 7.74986C4.31768 9.71843 4.43983 9.83493 4.60687 9.90776C4.72772 9.96045 4.84564 9.98875 4.98057 9.9974C5.09758 10.0049 5.23023 9.99579 5.30698 9.97499C5.37805 9.95572 5.4974 9.91015 5.57217 9.87372C5.68105 9.82071 6.50957 9.00557 9.73368 5.77953C13.1984 2.31268 13.7697 1.73005 13.8342 1.59757C13.8755 1.51291 13.9228 1.36395 13.9395 1.26656C13.962 1.13533 13.9619 1.04634 13.9389 0.923047C13.9219 0.831534 13.8785 0.692225 13.8424 0.613517C13.8064 0.534809 13.7133 0.406838 13.6356 0.329109C13.5579 0.25138 13.4444 0.16234 13.3835 0.131238C13.3225 0.100163 13.2162 0.0575596 13.1471 0.036598C13.078 0.0156365 12.942 -0.000811815 12.8448 3.09982e-05C12.7476 0.000873811 12.6192 0.0170775 12.5594 0.0360272Z" fill="white"/>
</svg>
