<svg width="179" height="100" viewBox="0 0 179 100" fill="none" xmlns="http://www.w3.org/2000/svg">
<g clip-path="url(#clip0_1_121)">
<path fill-rule="evenodd" clip-rule="evenodd" d="M178.506 99.1394H167.187C165.052 96.4141 162.269 92.9972 159.114 89.3479C155.913 92.9507 152.898 96.2761 150.16 99.1394H138.981C142.088 95.907 147.887 89.3944 153.501 82.8817C148.073 76.693 142.506 70.5042 139.027 66.9479H150.763C153.084 69.4423 155.96 72.6747 159.206 76.2775C162.084 72.9056 164.82 69.4873 166.629 66.9479H177.857C174.285 71.4732 169.553 77.1549 164.82 82.7437C170.109 88.9789 175.398 95.2606 178.506 99.1394ZM161.967 46.5972V58.5141H157.189V41.0648H163.526C166.241 44.7451 168.931 48.6507 171.422 52.5563V41.0648H176.25V58.5141H170.215C167.624 54.5338 164.833 50.5282 161.967 46.5972ZM136.529 41.0648H152.219V44.5944H141.383V47.7239H149.152V51.1789H141.383V54.9845H152.219V58.5141H136.529V41.0648ZM120.819 58.5141H112.043V41.0648H120.819C127.559 41.0648 130.803 42.893 130.803 49.7014C130.803 56.4859 127.559 58.5141 120.819 58.5141ZM120.242 44.5944H116.897V54.9592H120.242C124.516 54.9592 125.622 54.2578 125.622 49.7521C125.622 45.0958 124.516 44.5944 120.242 44.5944ZM138.087 99.1394H128.204C127.23 97.2465 126.071 94.7521 124.911 92.0268H108.906C107.932 94.7056 107.097 97.1535 106.4 99.1394H96.8436C100.092 90.1338 106.122 76 110.576 66.9479H124.447C128.111 77.0169 133.911 90.7338 138.087 99.1394ZM117.72 73.4141H116.282C114.752 76.7859 112.988 81.1268 111.225 85.607H122.36C120.55 81.2197 118.88 76.831 117.72 73.4141ZM107.651 58.5141H101.592C98.3222 53.7577 96.8127 52.2803 95.5308 52.2803H93.3424V58.5141H88.4904V41.0648H100.232C104.533 41.0648 105.991 43.293 105.991 46.1718C105.991 48.6761 104.734 50.8535 100.736 51.0296C102.169 51.4549 103.728 53.031 107.651 58.5141ZM98.8001 44.4944H93.3424V48.9761H98.7495C99.8051 48.9761 100.585 48.3507 100.585 46.7986C100.585 45.2211 99.9063 44.4944 98.8001 44.4944ZM78.0626 54.6592H69.3876C68.8591 56.1113 68.4065 57.438 68.0298 58.5141H62.849C64.6101 53.6324 67.878 45.9718 70.2928 41.0648H77.8111C79.7985 46.5225 82.9413 53.9577 85.2042 58.5141H79.8477C79.3206 57.4873 78.6909 56.1366 78.0626 54.6592ZM74.1651 44.5704H73.3864C72.5557 46.3972 71.5999 48.7507 70.6442 51.1789H76.6796C75.6985 48.8014 74.7933 46.4225 74.1651 44.5704ZM41.6589 49.6268C41.6589 42.4916 45.4567 40.6394 52.4718 40.6394C54.434 40.6394 57.4517 40.8901 59.0357 41.2648L58.1559 44.8197C57.0989 44.5197 54.233 44.3197 52.9497 44.3197C48.4238 44.3197 46.8398 44.8451 46.8398 49.6775C46.8398 54.4831 48.4238 55.1352 52.6489 55.1352C53.3025 55.1352 54.0812 55.0592 54.635 55.0099V51.3549H50.4605V47.9H59.6134V58.038C57.8537 58.4887 54.3328 58.8648 51.6172 58.8648C44.8537 58.8648 41.6589 56.7366 41.6589 49.6268ZM68.9308 85.7915C71.7138 79.6958 75.565 72.2592 78.6263 66.9479H90.0857V99.1394H81.4107V77.3859C78.4407 82.7901 74.4054 91.0113 71.8065 96.4606H64.7085C62.2502 91.1028 58.399 82.5592 55.616 77.3859V99.1394H46.941V66.9479H58.9556C62.2038 72.3056 66.0536 79.7408 68.9308 85.7915Z" fill="white"/>
<path fill-rule="evenodd" clip-rule="evenodd" d="M76.109 25.0507L75.1307 26.0366L62.6171 38.6563L47.6031 29.9225L32.1041 38.938V56.9704L39.9948 61.5606L27.4489 74.2127L18.6389 83.0986C16.9087 81.3535 15.2783 79.7084 12.1579 76.562C6.7536 71.1127 12.439 63.6817 12.439 63.6817L13.4173 62.6944L22.5112 53.5239H12.3941H-0.00146484C-0.00146484 51.0366 -0.00146484 48.693 -0.00146484 44.207C-0.00146484 36.438 9.18098 35.2282 9.18098 35.2282H10.5584H22.2484L14.4813 27.4944L5.62073 18.6732C7.3608 16.9408 9.00107 15.3084 12.1383 12.1845C17.5721 6.77465 24.9822 12.4648 24.9822 12.4648L25.966 13.4465L35.1485 22.5873V12.4014V-0.0140848C37.6279 -0.0140848 39.9667 -0.0140848 44.4406 -0.0140848C52.1894 -0.0140848 53.3967 9.1831 53.3967 9.1831V10.5634V22.3141L61.1146 14.5296L69.9147 5.65352C71.6436 7.39577 73.2726 9.03944 76.3887 12.1817C81.786 17.6268 76.109 25.0507 76.109 25.0507Z" fill="#7AC258"/>
</g>
<defs>
<clipPath id="clip0_1_121">
<rect width="178.505" height="100" fill="white"/>
</clipPath>
</defs>
</svg>
